<svg xmlns="http://www.w3.org/2000/svg" viewBox="0 0 46 46" width="46" height="46">
	<style>
		tspan { white-space:pre }
		.shp0 { fill: #141f25;stroke: #afafaf;stroke-width: 2.6 } 
	</style>
	<g id="Layer">
		<g id="Layer">
			<g id="Layer">
				<path id="Layer" class="shp0" d="M21 42.06C17.85 42.06 15.3 39.56 15.3 36.46C15.3 33.37 17.85 30.87 21 30.87C24.15 30.87 26.7 33.37 26.7 36.46C26.7 39.56 24.15 42.06 21 42.06Z" />
				<path id="Layer" class="shp0" d="M30.5 27.59C26.52 27.59 23.3 24.43 23.3 20.52C23.3 16.61 26.52 13.45 30.5 13.45C34.48 13.45 37.7 16.61 37.7 20.52C37.7 24.43 34.48 27.59 30.5 27.59Z" />
				<path id="Layer" class="shp0" d="M17.08 23.51C11.68 23.51 7.31 19.22 7.31 13.91C7.31 8.59 11.68 4.3 17.08 4.3C22.49 4.3 26.86 8.59 26.86 13.91C26.86 19.22 22.49 23.51 17.08 23.51Z" />
			</g>
		</g>
	</g>
</svg>